<mxfile host="65bd71144e">
    <diagram id="avVG5mVH9uRIEWctIzHI" name="第 1 页">
        <mxGraphModel dx="617" dy="1849" grid="1" gridSize="10" guides="1" tooltips="1" connect="1" arrows="1" fold="1" page="1" pageScale="1" pageWidth="827" pageHeight="1169" math="0" shadow="0">
            <root>
                <mxCell id="0"/>
                <mxCell id="1" parent="0"/>
                <mxCell id="221" value="" style="rounded=0;whiteSpace=wrap;html=1;" vertex="1" parent="1">
                    <mxGeometry x="40" y="-10" width="740" height="1200" as="geometry"/>
                </mxCell>
                <mxCell id="12" value="アカウントのログイン" style="text;html=1;resizable=0;autosize=1;align=center;verticalAlign=middle;points=[];fillColor=none;strokeColor=none;rounded=0;fontStyle=1;fontSize=17;" parent="1" vertex="1">
                    <mxGeometry x="45" width="190" height="30" as="geometry"/>
                </mxCell>
                <mxCell id="57" value="" style="shape=table;startSize=0;container=1;collapsible=0;childLayout=tableLayout;fontSize=10;whiteSpace=wrap;" parent="1" vertex="1">
                    <mxGeometry x="50" y="40" width="720" height="1130" as="geometry"/>
                </mxCell>
                <mxCell id="58" value="" style="shape=partialRectangle;collapsible=0;dropTarget=0;pointerEvents=0;fillColor=none;top=0;left=0;bottom=0;right=0;points=[[0,0.5],[1,0.5]];portConstraint=eastwest;fontSize=10;" parent="57" vertex="1">
                    <mxGeometry width="720" height="42" as="geometry"/>
                </mxCell>
                <mxCell id="59" value="ユーザー" style="shape=partialRectangle;html=1;whiteSpace=wrap;connectable=0;overflow=hidden;fillColor=none;top=0;left=0;bottom=0;right=0;pointerEvents=1;fontSize=10;" parent="58" vertex="1">
                    <mxGeometry width="240" height="42" as="geometry">
                        <mxRectangle width="240" height="42" as="alternateBounds"/>
                    </mxGeometry>
                </mxCell>
                <mxCell id="60" value="システム" style="shape=partialRectangle;html=1;whiteSpace=wrap;connectable=0;overflow=hidden;fillColor=none;top=0;left=0;bottom=0;right=0;pointerEvents=1;fontSize=10;" parent="58" vertex="1">
                    <mxGeometry x="240" width="240" height="42" as="geometry">
                        <mxRectangle width="240" height="42" as="alternateBounds"/>
                    </mxGeometry>
                </mxCell>
                <mxCell id="61" value="データベース" style="shape=partialRectangle;html=1;whiteSpace=wrap;connectable=0;overflow=hidden;fillColor=none;top=0;left=0;bottom=0;right=0;pointerEvents=1;fontSize=10;" parent="58" vertex="1">
                    <mxGeometry x="480" width="240" height="42" as="geometry">
                        <mxRectangle width="240" height="42" as="alternateBounds"/>
                    </mxGeometry>
                </mxCell>
                <mxCell id="62" value="" style="shape=partialRectangle;collapsible=0;dropTarget=0;pointerEvents=0;fillColor=none;top=0;left=0;bottom=0;right=0;points=[[0,0.5],[1,0.5]];portConstraint=eastwest;fontSize=10;" parent="57" vertex="1">
                    <mxGeometry y="42" width="720" height="1088" as="geometry"/>
                </mxCell>
                <mxCell id="63" value="" style="shape=partialRectangle;html=1;whiteSpace=wrap;connectable=0;overflow=hidden;fillColor=none;top=0;left=0;bottom=0;right=0;pointerEvents=1;fontSize=10;" parent="62" vertex="1">
                    <mxGeometry width="240" height="1088" as="geometry">
                        <mxRectangle width="240" height="1088" as="alternateBounds"/>
                    </mxGeometry>
                </mxCell>
                <mxCell id="64" value="" style="shape=partialRectangle;html=1;whiteSpace=wrap;connectable=0;overflow=hidden;fillColor=none;top=0;left=0;bottom=0;right=0;pointerEvents=1;fontSize=10;" parent="62" vertex="1">
                    <mxGeometry x="240" width="240" height="1088" as="geometry">
                        <mxRectangle width="240" height="1088" as="alternateBounds"/>
                    </mxGeometry>
                </mxCell>
                <mxCell id="65" value="" style="shape=partialRectangle;html=1;whiteSpace=wrap;connectable=0;overflow=hidden;fillColor=none;top=0;left=0;bottom=0;right=0;pointerEvents=1;fontSize=10;" parent="62" vertex="1">
                    <mxGeometry x="480" width="240" height="1088" as="geometry">
                        <mxRectangle width="240" height="1088" as="alternateBounds"/>
                    </mxGeometry>
                </mxCell>
                <mxCell id="68" value="" style="endArrow=classic;html=1;fontSize=10;" parent="1" edge="1">
                    <mxGeometry width="50" height="50" relative="1" as="geometry">
                        <mxPoint x="164.5" y="120" as="sourcePoint"/>
                        <mxPoint x="164.5" y="160" as="targetPoint"/>
                    </mxGeometry>
                </mxCell>
                <mxCell id="69" value="" style="endArrow=classic;html=1;fontSize=10;" parent="1" edge="1">
                    <mxGeometry width="50" height="50" relative="1" as="geometry">
                        <mxPoint x="164.5" y="220" as="sourcePoint"/>
                        <mxPoint x="164.5" y="260" as="targetPoint"/>
                        <Array as="points">
                            <mxPoint x="164.5" y="220"/>
                        </Array>
                    </mxGeometry>
                </mxCell>
                <mxCell id="73" value="" style="endArrow=classic;html=1;fontSize=10;" parent="1" edge="1">
                    <mxGeometry width="50" height="50" relative="1" as="geometry">
                        <mxPoint x="164.5" y="320" as="sourcePoint"/>
                        <mxPoint x="164.5" y="360" as="targetPoint"/>
                    </mxGeometry>
                </mxCell>
                <mxCell id="78" value="" style="endArrow=classic;html=1;fontSize=10;exitX=0.5;exitY=1;exitDx=0;exitDy=0;" parent="1" source="108" edge="1">
                    <mxGeometry width="50" height="50" relative="1" as="geometry">
                        <mxPoint x="164.5" y="420" as="sourcePoint"/>
                        <mxPoint x="164.5" y="460" as="targetPoint"/>
                    </mxGeometry>
                </mxCell>
                <mxCell id="80" value="ログイン画面に入って、登録のハイパーリンクをクリックして、登録画面に入る。" style="rounded=1;whiteSpace=wrap;html=1;fontSize=10;" parent="1" vertex="1">
                    <mxGeometry x="105" y="160" width="120" height="60" as="geometry"/>
                </mxCell>
                <mxCell id="81" value="ユーザーネームを入力する" style="rounded=1;whiteSpace=wrap;html=1;fontSize=10;" parent="1" vertex="1">
                    <mxGeometry x="105" y="260" width="120" height="60" as="geometry"/>
                </mxCell>
                <mxCell id="96" value="&lt;span style=&quot;color: rgb(240 , 240 , 240) ; font-family: &amp;#34;helvetica&amp;#34; ; font-size: 10px ; font-style: normal ; font-weight: 400 ; letter-spacing: normal ; text-align: center ; text-indent: 0px ; text-transform: none ; word-spacing: 0px ; background-color: rgb(42 , 42 , 42) ; display: inline ; float: none&quot;&gt;データベースの中にユーザーネームを検索&lt;/span&gt;" style="rounded=1;whiteSpace=wrap;html=1;fontSize=10;" parent="1" vertex="1">
                    <mxGeometry x="580" y="460" width="120" height="60" as="geometry"/>
                </mxCell>
                <mxCell id="108" value="パスワードを入力する" style="rounded=1;whiteSpace=wrap;html=1;fontSize=10;" parent="1" vertex="1">
                    <mxGeometry x="105" y="360" width="120" height="60" as="geometry"/>
                </mxCell>
                <mxCell id="113" value="入力した資料を提出する" style="rounded=1;whiteSpace=wrap;html=1;fontSize=10;" parent="1" vertex="1">
                    <mxGeometry x="105" y="460" width="120" height="60" as="geometry"/>
                </mxCell>
                <mxCell id="114" value="" style="endArrow=classic;html=1;fontSize=10;entryX=0;entryY=0.5;entryDx=0;entryDy=0;" parent="1" target="121" edge="1">
                    <mxGeometry width="50" height="50" relative="1" as="geometry">
                        <mxPoint x="225" y="489.5" as="sourcePoint"/>
                        <mxPoint x="360" y="490" as="targetPoint"/>
                    </mxGeometry>
                </mxCell>
                <mxCell id="120" value="" style="rhombus;whiteSpace=wrap;html=1;fontSize=10;" parent="1" vertex="1">
                    <mxGeometry x="600" y="570" width="80" height="80" as="geometry"/>
                </mxCell>
                <mxCell id="121" value="&lt;meta charset=&quot;utf-8&quot;&gt;&lt;span style=&quot;color: rgb(240, 240, 240); font-family: helvetica; font-size: 10px; font-style: normal; font-weight: 400; letter-spacing: normal; text-align: center; text-indent: 0px; text-transform: none; word-spacing: 0px; background-color: rgb(42, 42, 42); display: inline; float: none;&quot;&gt;ユーザーネームを検索&lt;/span&gt;" style="rounded=1;whiteSpace=wrap;html=1;fontSize=10;" parent="1" vertex="1">
                    <mxGeometry x="354" y="460" width="120" height="60" as="geometry"/>
                </mxCell>
                <mxCell id="122" value="" style="endArrow=classic;html=1;fontSize=10;exitX=1;exitY=0.5;exitDx=0;exitDy=0;entryX=0;entryY=0.5;entryDx=0;entryDy=0;" parent="1" source="121" target="96" edge="1">
                    <mxGeometry width="50" height="50" relative="1" as="geometry">
                        <mxPoint x="460" y="760" as="sourcePoint"/>
                        <mxPoint x="580" y="759.5" as="targetPoint"/>
                    </mxGeometry>
                </mxCell>
                <mxCell id="135" value="" style="endArrow=classic;html=1;fontSize=10;entryX=0.5;entryY=0;entryDx=0;entryDy=0;exitX=0.5;exitY=1;exitDx=0;exitDy=0;" parent="1" source="96" target="120" edge="1">
                    <mxGeometry width="50" height="50" relative="1" as="geometry">
                        <mxPoint x="640" y="830" as="sourcePoint"/>
                        <mxPoint x="639.5" y="830" as="targetPoint"/>
                    </mxGeometry>
                </mxCell>
                <mxCell id="151" value="個人ブログ画面に飛ぶ" style="rounded=1;whiteSpace=wrap;html=1;fontSize=10;" parent="1" vertex="1">
                    <mxGeometry x="354" y="960" width="120" height="60" as="geometry"/>
                </mxCell>
                <mxCell id="152" value="" style="endArrow=classic;html=1;fontSize=10;exitX=0;exitY=0.5;exitDx=0;exitDy=0;entryX=1;entryY=0.5;entryDx=0;entryDy=0;" parent="1" source="151" target="153" edge="1">
                    <mxGeometry width="50" height="50" relative="1" as="geometry">
                        <mxPoint x="155" y="870" as="sourcePoint"/>
                        <mxPoint x="205" y="820" as="targetPoint"/>
                    </mxGeometry>
                </mxCell>
                <mxCell id="153" value="個人ブログ画面に入る" style="rounded=1;whiteSpace=wrap;html=1;fontSize=10;" parent="1" vertex="1">
                    <mxGeometry x="105" y="960" width="120" height="60" as="geometry"/>
                </mxCell>
                <mxCell id="155" value="ユーザーネームとパスワードがマッチする" style="rounded=1;whiteSpace=wrap;html=1;fontSize=10;" parent="1" vertex="1">
                    <mxGeometry x="580" y="850" width="120" height="60" as="geometry"/>
                </mxCell>
                <mxCell id="171" value="再入力" style="rounded=1;whiteSpace=wrap;html=1;fontSize=10;" parent="1" vertex="1">
                    <mxGeometry x="105" y="580" width="120" height="60" as="geometry"/>
                </mxCell>
                <mxCell id="191" value="ログイン成功と報告する" style="rounded=1;whiteSpace=wrap;html=1;fontSize=10;" parent="1" vertex="1">
                    <mxGeometry x="354" y="850" width="120" height="60" as="geometry"/>
                </mxCell>
                <mxCell id="192" value="" style="endArrow=classic;html=1;fontSize=10;entryX=0.5;entryY=0;entryDx=0;entryDy=0;exitX=0.5;exitY=1;exitDx=0;exitDy=0;" parent="1" source="191" target="151" edge="1">
                    <mxGeometry width="50" height="50" relative="1" as="geometry">
                        <mxPoint x="410" y="1180" as="sourcePoint"/>
                        <mxPoint x="390" y="1210" as="targetPoint"/>
                    </mxGeometry>
                </mxCell>
                <mxCell id="193" value="" style="endArrow=classic;html=1;fontSize=10;exitX=0.5;exitY=1;exitDx=0;exitDy=0;entryX=0.5;entryY=0;entryDx=0;entryDy=0;" parent="1" source="120" target="214" edge="1">
                    <mxGeometry width="50" height="50" relative="1" as="geometry">
                        <mxPoint x="630" y="1240" as="sourcePoint"/>
                        <mxPoint x="680" y="1190" as="targetPoint"/>
                        <Array as="points">
                            <mxPoint x="640" y="670"/>
                        </Array>
                    </mxGeometry>
                </mxCell>
                <mxCell id="194" value="" style="endArrow=classic;html=1;fontSize=10;exitX=0;exitY=0.5;exitDx=0;exitDy=0;entryX=1;entryY=0.5;entryDx=0;entryDy=0;" parent="1" source="155" target="191" edge="1">
                    <mxGeometry width="50" height="50" relative="1" as="geometry">
                        <mxPoint x="560" y="1270" as="sourcePoint"/>
                        <mxPoint x="610" y="1220" as="targetPoint"/>
                    </mxGeometry>
                </mxCell>
                <mxCell id="195" value="" style="ellipse;html=1;shape=endState;fillColor=#000000;strokeColor=#000000;fontSize=10;" parent="1" vertex="1">
                    <mxGeometry x="150" y="1070" width="30" height="30" as="geometry"/>
                </mxCell>
                <mxCell id="196" value="" style="ellipse;fillColor=#000000;strokeColor=none;fontSize=10;" parent="1" vertex="1">
                    <mxGeometry x="150" y="90" width="30" height="30" as="geometry"/>
                </mxCell>
                <mxCell id="197" value="" style="endArrow=classic;html=1;fontSize=10;exitX=0.5;exitY=1;exitDx=0;exitDy=0;entryX=0.5;entryY=0;entryDx=0;entryDy=0;" parent="1" source="153" target="195" edge="1">
                    <mxGeometry width="50" height="50" relative="1" as="geometry">
                        <mxPoint x="220" y="1370" as="sourcePoint"/>
                        <mxPoint x="270" y="1320" as="targetPoint"/>
                    </mxGeometry>
                </mxCell>
                <mxCell id="208" value="" style="endArrow=classic;html=1;fontSize=10;exitX=0;exitY=0.5;exitDx=0;exitDy=0;entryX=1;entryY=0.5;entryDx=0;entryDy=0;" parent="1" source="120" target="210" edge="1">
                    <mxGeometry width="50" height="50" relative="1" as="geometry">
                        <mxPoint x="340" y="720" as="sourcePoint"/>
                        <mxPoint x="390" y="670" as="targetPoint"/>
                    </mxGeometry>
                </mxCell>
                <mxCell id="210" value="ユーザー存在していないと報告" style="rounded=1;whiteSpace=wrap;html=1;fontSize=10;" parent="1" vertex="1">
                    <mxGeometry x="354" y="580" width="120" height="60" as="geometry"/>
                </mxCell>
                <mxCell id="211" value="" style="endArrow=classic;html=1;fontSize=10;exitX=0;exitY=0.5;exitDx=0;exitDy=0;entryX=1;entryY=0.5;entryDx=0;entryDy=0;" parent="1" source="210" target="171" edge="1">
                    <mxGeometry width="50" height="50" relative="1" as="geometry">
                        <mxPoint x="340" y="610" as="sourcePoint"/>
                        <mxPoint x="390" y="560" as="targetPoint"/>
                    </mxGeometry>
                </mxCell>
                <mxCell id="212" value="ユーザーが存在&lt;br&gt;している" style="text;html=1;resizable=0;autosize=1;align=center;verticalAlign=middle;points=[];fillColor=none;strokeColor=none;rounded=0;fontSize=10;" parent="1" vertex="1">
                    <mxGeometry x="640" y="660" width="90" height="30" as="geometry"/>
                </mxCell>
                <mxCell id="213" value="ユーザーが存在&lt;br&gt;していない" style="text;html=1;resizable=0;autosize=1;align=center;verticalAlign=middle;points=[];fillColor=none;strokeColor=none;rounded=0;fontSize=10;" parent="1" vertex="1">
                    <mxGeometry x="530" y="570" width="90" height="30" as="geometry"/>
                </mxCell>
                <mxCell id="214" value="" style="rhombus;whiteSpace=wrap;html=1;fontSize=10;" parent="1" vertex="1">
                    <mxGeometry x="600" y="710" width="80" height="80" as="geometry"/>
                </mxCell>
                <mxCell id="215" value="" style="endArrow=classic;html=1;fontSize=10;exitX=0.5;exitY=1;exitDx=0;exitDy=0;entryX=0.5;entryY=0;entryDx=0;entryDy=0;" parent="1" source="214" target="155" edge="1">
                    <mxGeometry width="50" height="50" relative="1" as="geometry">
                        <mxPoint x="340" y="820" as="sourcePoint"/>
                        <mxPoint x="390" y="770" as="targetPoint"/>
                    </mxGeometry>
                </mxCell>
                <mxCell id="216" value="ユーザーネームと&lt;br&gt;パスワードとマッチ&lt;br&gt;している" style="text;html=1;resizable=0;autosize=1;align=center;verticalAlign=middle;points=[];fillColor=none;strokeColor=none;rounded=0;fontSize=10;" parent="1" vertex="1">
                    <mxGeometry x="640" y="790" width="110" height="40" as="geometry"/>
                </mxCell>
                <mxCell id="217" value="&lt;span style=&quot;color: rgb(240 , 240 , 240) ; font-family: &amp;#34;helvetica&amp;#34; ; font-size: 10px ; font-style: normal ; font-weight: 400 ; letter-spacing: normal ; text-align: center ; text-indent: 0px ; text-transform: none ; word-spacing: 0px ; background-color: rgb(42 , 42 , 42) ; display: inline ; float: none&quot;&gt;ユーザーとパスワードがマッチしていないと報告&lt;/span&gt;" style="rounded=1;whiteSpace=wrap;html=1;fontSize=10;" parent="1" vertex="1">
                    <mxGeometry x="354" y="720" width="120" height="60" as="geometry"/>
                </mxCell>
                <mxCell id="218" value="" style="endArrow=classic;html=1;fontSize=10;exitX=0;exitY=0.5;exitDx=0;exitDy=0;entryX=1;entryY=0.5;entryDx=0;entryDy=0;" parent="1" source="214" target="217" edge="1">
                    <mxGeometry width="50" height="50" relative="1" as="geometry">
                        <mxPoint x="340" y="750" as="sourcePoint"/>
                        <mxPoint x="390" y="700" as="targetPoint"/>
                    </mxGeometry>
                </mxCell>
                <mxCell id="219" value="" style="endArrow=classic;html=1;fontSize=10;exitX=0;exitY=0.5;exitDx=0;exitDy=0;entryX=0.5;entryY=1;entryDx=0;entryDy=0;" parent="1" source="217" target="171" edge="1">
                    <mxGeometry width="50" height="50" relative="1" as="geometry">
                        <mxPoint x="340" y="820" as="sourcePoint"/>
                        <mxPoint x="390" y="770" as="targetPoint"/>
                        <Array as="points">
                            <mxPoint x="165" y="750"/>
                        </Array>
                    </mxGeometry>
                </mxCell>
                <mxCell id="220" value="ユーザーネームと&lt;br&gt;パスワードとマッチ&lt;br&gt;していない" style="text;html=1;resizable=0;autosize=1;align=center;verticalAlign=middle;points=[];fillColor=none;strokeColor=none;rounded=0;fontSize=10;" parent="1" vertex="1">
                    <mxGeometry x="510" y="710" width="110" height="40" as="geometry"/>
                </mxCell>
            </root>
        </mxGraphModel>
    </diagram>
</mxfile>